<mxfile host="app.diagrams.net" modified="2023-11-28T14:52:33.848Z" agent="Mozilla/5.0 (X11; Ubuntu; Linux x86_64; rv:120.0) Gecko/20100101 Firefox/120.0" etag="3trBTOcYHnc-_UqC133q" version="22.1.4" type="device">
  <diagram name="Page-1" id="EAPL11P742Sw_7bRHT6J">
    <mxGraphModel dx="605" dy="350" grid="0" gridSize="10" guides="1" tooltips="1" connect="1" arrows="1" fold="1" page="1" pageScale="1" pageWidth="827" pageHeight="1169" math="0" shadow="0">
      <root>
        <mxCell id="0" />
        <mxCell id="1" parent="0" />
        <mxCell id="tkFViDJdxu8oeNSksexc-1" value="" style="ellipse;whiteSpace=wrap;html=1;aspect=fixed;labelBackgroundColor=#7EA6E0;strokeWidth=3;fillColor=#e1d5e7;strokeColor=#9673a6;" vertex="1" parent="1">
          <mxGeometry x="34" y="35" width="280" height="280" as="geometry" />
        </mxCell>
        <mxCell id="tkFViDJdxu8oeNSksexc-3" value="" style="ellipse;whiteSpace=wrap;html=1;aspect=fixed;fillColor=#fff2cc;strokeWidth=3;strokeColor=#d6b656;" vertex="1" parent="1">
          <mxGeometry x="227" y="32.5" width="285" height="285" as="geometry" />
        </mxCell>
        <mxCell id="tkFViDJdxu8oeNSksexc-4" value="Tentation de l’outil unique omnipotent " style="text;html=1;strokeColor=none;fillColor=none;align=center;verticalAlign=middle;whiteSpace=wrap;rounded=0;fontSize=19;fontStyle=1;fontColor=#613583;" vertex="1" parent="1">
          <mxGeometry x="87" y="128" width="117" height="86" as="geometry" />
        </mxCell>
        <mxCell id="tkFViDJdxu8oeNSksexc-5" value="&lt;b&gt;Lente acquisition d’une culture computationnelle&lt;/b&gt;" style="text;html=1;strokeColor=none;fillColor=none;align=center;verticalAlign=middle;whiteSpace=wrap;rounded=0;fontSize=19;fontColor=#c64600;" vertex="1" parent="1">
          <mxGeometry x="330" y="90" width="114" height="40" as="geometry" />
        </mxCell>
        <mxCell id="tkFViDJdxu8oeNSksexc-8" value="&lt;div&gt;&lt;div align=&quot;left&quot;&gt;&lt;font color=&quot;#c64600&quot;&gt;&lt;br&gt;&lt;/font&gt;&lt;/div&gt;&lt;font color=&quot;#c64600&quot;&gt;Usage / adaptation / création d’outils spécialisés pour :&lt;br&gt;&lt;/font&gt;&lt;ul&gt;&lt;li&gt;&lt;div align=&quot;left&quot;&gt;&lt;font color=&quot;#c64600&quot;&gt;encodage&lt;/font&gt;&lt;/div&gt;&lt;/li&gt;&lt;li&gt;&lt;div align=&quot;left&quot;&gt;&lt;font color=&quot;#c64600&quot;&gt;transformation&lt;/font&gt;&lt;/div&gt;&lt;/li&gt;&lt;li&gt;&lt;div align=&quot;left&quot;&gt;&lt;font color=&quot;#c64600&quot;&gt;analyse textuelle&lt;/font&gt;&lt;/div&gt;&lt;/li&gt;&lt;li&gt;&lt;div align=&quot;left&quot;&gt;&lt;font color=&quot;#c64600&quot;&gt;analyse de réseaux&lt;/font&gt;&lt;/div&gt;&lt;/li&gt;&lt;li&gt;&lt;div align=&quot;left&quot;&gt;&lt;font color=&quot;#c64600&quot;&gt;visualisation de données&lt;/font&gt;&lt;/div&gt;&lt;/li&gt;&lt;/ul&gt;&lt;/div&gt;" style="text;html=1;strokeColor=none;fillColor=none;align=center;verticalAlign=middle;whiteSpace=wrap;rounded=0;" vertex="1" parent="1">
          <mxGeometry x="291" y="180" width="240" height="80" as="geometry" />
        </mxCell>
        <mxCell id="tkFViDJdxu8oeNSksexc-11" value="" style="whiteSpace=wrap;html=1;shape=mxgraph.basic.pointed_oval;fillColor=#dae8fc;strokeColor=#6c8ebf;strokeWidth=3;dashed=1;dashPattern=1 1;" vertex="1" parent="1">
          <mxGeometry x="212" y="76" width="110" height="198" as="geometry" />
        </mxCell>
        <mxCell id="tkFViDJdxu8oeNSksexc-18" value="" style="shape=image;verticalLabelPosition=bottom;labelBackgroundColor=default;verticalAlign=top;aspect=fixed;imageAspect=0;image=data:image/png,iVBORw0KGgoAAAANSUhEUgAAAFMAAABTCAYAAADjsjsAAAAABHNCSVQICAgIfAhkiAAAABl0RVh0U29mdHdhcmUAZ25vbWUtc2NyZWVuc2hvdO8Dvz4AAAAodEVYdENyZWF0aW9uIFRpbWUAbWFyLiAyOCBub3YuIDIwMjMgMTU6NDg6MzEwv+8cAAAgAElEQVR4nO2deXxV1bn3v3uf+SQnOZnJPI8kYZ4RGRUFFS1KsQ5YbfVerXo7YNtXW6wz1dtap1brPFFxAhEVZFJEgRCBEIaQiYTMc3Jy5r3X+8fJOSQkQED09nPf9/l88slJ9lp7rfVbz7Se9ax1JCGE4P/TeSH5f7oD/5tI+0M2JoRAVVU0Gs2Qz9ra2mhpacHlcuEXGFUFSRKBMpIkERkZSWxsLDqdbsj3CCGQ5R+eT6QfQsxVVQUYMECHw0FjYyPffPMNra2tuFwuGhsbcdgdtHd0YOvtxeN2BwCUZRm9Xo/FYsFgMJCYmITFEoQkSUyYMIH8/HwMBgMmkynQhqIoaDSawDu+b/pewfQPxk9tbW1UVFSwf/9+du7cRXd3N3a7ncbGRtrbO6isrGbEiBHk5mYRER5OUHAwer0eIQRut4veXjvNTc2UHjqCQa8jOjqKkBALQUFBBAcHk5iYwJw5c4iLi6OgoACt9oTgqar6vXPreQdzKDErLy9n06YtlB48QH1dPYcPH8Fm6yU3N5vMzAzS0tJITEwiNTWF8PBwtFotGo0GjUaDLGsQCISqoigqXq8Hj8dDS0srx44d49ixY1RWVlJZWcmRI0eJix1BUnISGRnp5OXlcfHFFxMREXHKvp1P+l45s6SkhA0bNlJUVERLcwulBw+Rn5/H/Pnzyc3NIS0tjeTkZIxG4zmLoRCC3t5eqqqqqK6uZt++fXzyyad0dHSSmJhAeHg4c+fOYfbs2aSmpgbqfB9if97A7C9GFRUVvP/+++zfX8Lhw0dQFIXZs2cyc+YsRo0qJCYmBr1eP+R7/N2RkEACAUiAQPj+8Hf8FGDY7Xaam5spLv6WzZs3sXXrF0REhJOQkMD06dO46qqriImJGdTn80HnBUz/TDscDj744AM++mgdDQ0N1NTUsmzZjVx00TwKCgoICgoaVOd80VDv6+rqYs+eYj799FPefHMVI0fmEh0dxdVXL+bSSy9Fp9OdV0C/E5j9O1JaWso//vEPjh2roazsKJddtoCrr76agoJCjEYD4OPYrq4uxo4de146fzIpisL27dspLCwkLCws8H+brZfi4j28/fYqtmzZRn5+Hqmpqdx2262kp6cPGss5kzhHUhQl8HnVqlVi6dKlYvz4iWLhwsvEhx9+KHp6egbVeeaZZ0V6epYoKSk512ZPS++++66QJEls375dCCGEqqpCVdXA87a2NvH666+LC2dcKKZOnSauu+56sXbtR0OO6VzonMD0N+pyucTKlSvFj360WBQWjhZ//OMKUVlVNaCsfzBlZWVi5szZ4uKL54urr75GVPWV6z/Y70IbN24Uo0ePFTNmXCjuvfde4XQ6T1m2tLRU3H33f4nRo8eIJUt+LJ588knh8XgGjO1cSLNixYoVZ8PJfnFobW3mz39+nF27dlNZVc1vf3sPN9/8U6KjogaUlyQJIQSvv/4GRUVFxMXFUlN7nMaGRqZOnYrBYPguUoUkSRw6dIjf/vZ3REVFERwczN69+xg/bhxx8XEDdKnfmEVFRTF58iQMBgNr166ju7uL6uoqCgsLMZlMqKp6Tvr8rMD0A1ldXc3KlY+zd+8+hICHH36QhQsXoNPpBna+73NJSQl/+ctfiYqKwuPxEGa1snPnLsxmM2PGjDlnQyRJEh0dHTzyyKO0trYSFBSEEAKn04lXUZkyZfIAx93fihACk8nEuHFjSU1N4ZNPPqW1tZXy8nLy8/OxWCznBOiwNa4fyJqaGh5//HFKSkowGIw8+OADzJgxY8AA+3/2eDysW7cOl8sVWNq53W4yMzN46qmn2bZtW2CAw6X+Zd999z22f/UV4eHheDweFMVLTEw0q1e/S0lJyZD1/dIiyzILFy7gkUcepqOjk+Lib3niiSdoaWlBluXAMni4NCww/UA2NjbyxBNPcPDgYZKSknjssUcYN+70lnn//hLeeeddYmNj8Xq9gYGoqkpychIrV/6Zo0ePBibB5XJhs9no7u6mra2dhoYGWltb6e7uxmaz4XK5AmU3bNjIM888S2ZGBh6Pp+//EqoqCAsL5cMP1+B0uobsV/9JnzVrJk8++Rd0Oh0lJQd48skn6e3tPWtAz+ga+YF0OBw8+OCDFBXtwWAw8Nhjj5Kbm3val7vdbh5++FE2bPiMESNi8HqVwDMhBFqtlvb2DgoLC7jxxhtpbm5m//79VFZW0tLagsvpCoibXq8nKiqK9PQ0pkyZgqqqPP74E0iShFarHSSWGo2Gmpoann76KaZMmTIsv/abb77hrrvuJjIyihkzLuA3v1mOLA/fbRq2n7ly5eN88cU2PB4PDz/8EOPGjTtlWX/Hd+8u4vbb7yA+Pg5FUQaU8XOoRqPB6XRSXl6B16uQmBiPyWRCq9UiSVKgnBACRVHo7bVz7FgNYWFWkpOTkGU58Lx/+1qtlo6ODiZPnswf/nAfZrN5OMNk8+bN3HvvfcTExDB37lxuv/0/h1UPThPP7D+Tb7zxBrt27eTYsVqefvrJ0wIJPqDcbjcbN24IgOLXUX6D4PV6fSCoKsHBwYwdOwZFUVAUZRA4gc5qtZhMJuLiYpEkCZfLicfjUx06rRZZo8Hr9aKqKl6vl4iICNau/YjLL7+MqVOnDguQ2bNnc889PSxf/juMRiNZWVnMmzd3WNx5Smvur7x//35ee+11ysrKWL78N1x22WXD6tSRI0dYufJx4uJiUVUVrVaLy+HgyIGDlJdXYDKbEEBbezs7v/wGxeMhyBKMRqsNAAogSyc4T6vVghDUVh9j+5YvMQaZ0ev1eDweqqurObK/lJBQC+agoAAjSBI4HE6mTZs6ZDB5KMrIyEAIhU2bNtPc3MyYMWMICws7o4UfkjP90fCenh5eeOGflB48yKWXXsKiRVcMqzMAW7duw+VyBvRtddlRxs64gBtuuZn0tDSMRgNajRaPx4Ott5eDhw/z/nvv0VR9jISU5ADnqqgIIdDpdHR3dtHe2cF1P72JJ8aNwxIcjN5gQKiqL7jc1MymrVv45L0PiE9KJNhiISI8nM8+28BVV13JhAkTzqg7/ZP2k59cx5EjZZSWHuSll15ixYoVZ8+ZfnEEWL16NTt27MBsDuL3v/8dMTExw1LkdXV1vPjiixgMBlwOJyD4P/ffz81Ll5IdHkHI8XrkI0eRq6oxt7YRF2Qhf9Qo5i+8DK3ZxCfvrSEmPi6gMw0GA3XHasgamceDDz3IvPETiGjtQHvkKOJoOdra44Q5PaQlJ3PhnDlMmnkhBw+W0lTfiDUijJ6eHkwmExMnThxyy6Q/+VVSUFAQcXFxrFmzBq9XwWq1kp6efnruPHlJ5F9OlZWVieuuu14kJKSI1atXn9WyasOGDSIrO1dcNO8isWzZTaKsvFzYjlaIQw+vFFsic8WGEElsDPwYxcYQjdiWPVHU/Gu16G1pE2++845Ij00U8y+eL664YpGID44Qy3//e9HQ0Cg6dhaJb65YctI7JLEhRBKfhwaJvXf+WnTvLxV19fXijjt+IaZNmSZ+tHixmDJlmqisrDyrcaiqKp577jmRlZUjbrnlZ6Kjo+O05QfxrZ8r16xZQ2VlFcuWXc+CBQsCXHsmcjqd7Nq1i7DQUMIjIrjvj38gsq2ToimXU/voPch5iegLZiHHFPbVcCEHZaCG6Dn0s2uoevrvLLpgBs+9/ToarZa21lb++NTj/O5Xv0Ip2kPxRRPoPXwEXfpk5KAsJCkVTdxo9Pkz0Y29gNbXPmDX9Hz0RytZfs9yElOScDtdeL0edu3adcb+n8ylixcvZtKkidTW1rJ27VqAU/qeA8D0uy8HDhxg7959yLJESkoy3d09gZefCdTOzk6++OJLXL12br/7LqJsDr6dNwE1Lhjj+Pl49x1AtrmJXrKYjFc+IPOt9cTc9TO0qgZdeD71f7mXIw8+ypTYBJ555mn++fLLXHvRfFrf+5CDP1mIIBaNrMcyejQj/us2Eh5aTuTlC9Ao4Cneja4wHU3OdPZddgHWzh5uvf12jlVUYTYHUVxcjMPhGLLfJ4+poaGRkpISXC4XV1+9mMbGJj7/fBMNDQ2ndOYHGCC/Pvn0089obW0lKiqKzz7bwNat25gwYQLz519MVlbWkDpD9OnSw4cPs3HjBv708MOMSk6hbMVDCCkJXXQEnt17iP79clKXLsEYFYmmL84pLppD79IlVL/+Fi3Pv0bHBxsoLtpL7E+uRmcyUbJxC7ZP30AbUUDM7T8l4corMEVHotFqkWQZxavg7u6mbt16jv/6T2jGZOOVoqh6/U0K7/4Fcxdcwu6vv+bAgVKqqqrIy8sbpPv9n8vLy/nssw3s2rWL+vp6oqIiycrKYdSoQlpaWtiyZRvXXvvjgH874B3ipCmprq5m+fJ76O3tRafT4Xa78Xg8tLa2EhYWxq23/pyUlBSs1jASEhIIChroDP/97//gP//zP9i0/UsKZR3FF0/GOHkB7p0biX/or2TfeguSdmj3VnW5KX/1dY4v/z9ocnLwHPoCAWgTx8PxZlJf+ispVy0asq6faj5YS8VNdyIXZqLuP8L4Lz9l3dHDPPHHP9Fms/HSSy8wa9asQHmHw0FtbS0dHR3U1NTwwgsv0tTURHR0FCaTCafThdPpJDZ2BHa7HavVytNPP0NoqGVQ24FR+f3KjRs34vV60en0qKqCTqsN7FcrisIf/rACSZLJzc0hNTWFtLQ0CgsLyMnJwWw201BfT2JuHhmx8XRu2oIEKPUtBF2yhJQlV/uA9GUWcOjwEXbt2oXX4+Hiiy8mITGBtKVL6C09TMe/1mEYPx8kCU9RKZG/upXkyxcGOt7S3MKe4j20trQyadIkMjMzQJJIunwhXXeV0PLPN1HEcXqam0lKSECn1xEXN4JDhw6Tk5NDVVUVxcXFVFdXU1VVxaFDh/F4vOTm5pCRkYaiqH1W3YTBoA/4mbZeG1999SWXXnrpIEdeCyfcoZ6eHkpLD2Kz2QgODkJVfTFA3zargiRJ5OePBAROp4tdu3bxxRdf4HK5SUpKZNKkSZSXHWXs6EKMskzP0SrkmELU2j1E/vI/MEZGIFQVSZbZsmULN998G3FxMezYsZ0HHniQX//qlxgswSQsvYauNz9GtTtAlpDRMWLWzABHl5eXs2LF/ezduw+dTkdoaAjPPfesL1agkRkxfx5tr72DArg7OgiJjkBjNhFutbJly1bWrv2IxsZGNBoNRqOR0NAQcnJykGUJt9uD2+0JiK+q+oyqJTiYtNRUPt2wgaKiIi699NJBfqfs50qAo0ePUl9fj9kcFAhK+Cqc0A0ejxuPx4tWqyUqKoqkpCQyMzOQZZnNmzfT0tKMwWBEqAKhKgi3F8mYhSU1DQCpT9ds2rSJ+PgYEhLiWbBgIZWVlbR3dABgLRiJedGFqE3tCJsD3YWjsWRnBjr99ddf88UX28nPH0lubg5Hj1Zw6NChwHNLVgaatARfMFgofVFhn8/qdDrQ63WkpaWQnJxETEwUOp0Or9eL2+3x9fEkXep0OgkKtjBr9ixcTifl5eWUlZUFJHoAmH7DU15ejs1mo/+eqq9wf4NzwqJ7FS9er+9HlmXCw8Mxmky0t7aiSKBPjEftqEAKD8IQFRmoJ0kSI0fmU1ZWgVarpbGxiejoaEJDQ33iYjQQlJyMsDkRDjcaayj60JBAD8xmM11dPg/D6/XS0HB8QFqMrNOhj4xABbRh4fR63Di7upFk2cccEni9Cl6vF4/He1rvRJJAUVQ0GomEhAQmTZpETU0t9fUNg4AP8Kndbufzzzeh7dOR/gZkWUaWh/b4pX4gCyF8oGq1tFbXUNveSnBeDgIXaDUIjydQDuCSS+Zzyy038dZbb6LX61i06ArMZnNgGmWjARSfShCqMmDAU6ZM4eabb+TLL7/iwIEDPProo0ycOHFA34THgxYIsobR2NKMrb0zYIGHs/9+Ylyg1+vwuD1ERUUxceIEDh48wjfffI3HqwyoHzBALpeLjo529Ho90dHRVFZWBuKEwydfSM1ld1C8dx/5s+cRNHEBjl0fYz9eR9jowsByzWq1cs89y1m8eDFWa2gg28KXcACuphbQaSHYgNLYgrOxieDkJIQQxMXFcd9997Js2Y1otVpSU1MxmUwBfay4XDi+PUjw/J8gR0VQ9uVWTNaQE+icxXaEJEmoqorBaECr1ZKYmEh0dCQlJQdwOR3ogoMDZQOcWVpaitPpIiIiguysLBxO5znszUh4vV6SszL4ZM1aGoWXxJuuwyOg/UBpYCASPkBDQkIYM2b0ibSVvonrPV6PrXgfckIEmnAr7t2f0VFyMACGEIKwsDAKCwvJy8vzAdmPc7sPHcHdXkLYtMnY9Dr27tpNVOwIH2Oc5ZgkycdokZG+jUK/jfBn8fWnAJi7d++mq6ubrKwsMjIz6OzoPIdNeZ8+9Hq9BAUHYdDq8Dgc6CRo/8cbtO7Z6+M8ofb99m1fqKoa4CqA4x99jLt4J/TY8RyoRIofTf2q1bha23xlVBWh9qsrBAiBJMuobjeNn3yGDHTt3oPFqzB9zmxa6hoCxvTswJTp7u4hLi4OgBEjRpCWlobD4WDnzp1Dg+lVFJqbm8nIzCA+Pp7W1rZz4kxZljl2qIwfX3cdob0Oan51P7q8C1GD9Bx9aCXdldU+QPqsq9xnFPxA1m3YRMODf0OKTSF8yZWEX3clUo+T3nWbOfrU33F3diFpNEhyv7qSFKhf89F62p97BcOE+XStfYXOXUXMnz2bkOhIFK+XgcZ0OGBKNDW1EBcX6wNMlklMTKSrq5umppahwVQVhbq6JhLi4wkPDyczMyOwAXY2DbscDgpnTGViQSH1GzbgFceQdDo01lAc24spvfPXNH3xFYrT6avUJ56utnbKX3qVsht+gSYjHm99MdEXzWH0Q/cT8dOlSEFmmp96lf333EvLziK8djuij6OFotBbW8fhZ/5O1c3/hZyTCr0OtOmTqfnv54jU6vjJDddzrMJnB4YTsPGNx+ctjByZi9VqDYCZkBBPV1cXMNCeaMG3pOrq6sLpdBEeHkFERCQFBfns3buX8PBwFOXMMyr6ArgH9+7ngSf+jMnp4shjf0efOwPhcoEQaHOScFZUc/DyG7AsXUDIyDy0lmCcjc107S7C/vn7aPOmgF6LDOhDQ0GnJXnp1bS/9QFkhtG9fjOl/9qAefEcghITkU1GXC2t2Pbux717G5q8caAKhKKgCQ6md99GbHv3M3XyZF4wGs9iP1wgy1q6uroYPbowAKYkSURHx9DV1Y3d7sDj8QQi+FrwZYu1tbczcmQWWq0Gk8lIQUE+GzZsJDIqkpP2woYkWZbxeDzEJScxZlQh3buLcNlKMern+sCUJITLhRwWAmEWej7YQNfbbwMeJMxIUTHoCmcgvF7cez4j6c8vEJaTDUBIZjrRt13P8fvvxjjmIlS3i96Pt2Jz2BCoSOiQE6PRFk4OTFyfg4hWl0H9mnVk/ekPLLhqEevf/5CE5CQ8Xu9p2UP0jamxsYkf/3gJERERAR85OjqKurp62tvb6erqIjLS50PLgG+PurWVqKjIwKyNHDnSx5VehTNyZZ9L1FhXx8yL5hJrDqJx81a0ugwGzIQkgVcBVaBJj0eXPxpdwQS0+SPRRIch3G5o7yHlr6+Qsex6JJ3WZ+FlmfSbbiDv7U8wxI5A2BxoMuLR5meiy89Gm5+GHGz2AelvBxBeL5rcZLre/QdKYyMTJk3C1tbuK3IG5pCQUFSFkBBLYEvbrx5MJhORUZHY7XY6+lZtATBtNhtut4fQ0NDAaihvZB4FBSOx2x1ntOp+5723vZMx48ejNrXQ887f0eQmIrzekwv73BuvF+FxI9y+HwQo7Z2YxhaQ8qMrkfX6gIUXqoo+zEpofh7uxmbQyAiPd+DPUP5wHyepQPvefRSkpROXl43H7T4DlH363+kiJyeHgoKCQc/jYmNRFAWnX/f7wfR4PICETqcLcGZoSCiXXXYZFRUVw1LaitdLSHwseampdFUcxQtI8jBPxkj4dFxkOL3rt9OwfYd/RD6R7ZvM2g/W4iz+FDnEAmIYiwlJQrjdaBLG0fHpJoK0WsZNmEBvd/dpGcSv/8vLK7j8issH6Ev/b5PJENhW9pN8otDgvepJkyYzbdpUenp6TguoJEk47XZGjh5FmNFE17YdaKx5MAwO6DcCHyelRlJ5/S/pLDkYWH1IQE9lNS3PvYY2Z/oJcR7mezWWILo3bkPu7mHK+AlUllcG8p4GFe9TWb29vYwdO4ZpffvtJxdVVX/w56S1uY8jweXyBCqpqkpkZATLlt1IVVV1wJ8bijQamY72dkYVFCCrKt27itFEhJ5VMpbfYMiWYLxKJ8feWoVidyBrNCAEdes/wdNYiqw3+uJiZ0GSTocijuOuriEhPg5Vo6F/JGxAWXzJDkePlnPTTTcF8t/7FxVCYLc70Go16HQnpE8GCA4OxmQy0dHR3ucGnWDpCy64gNtuu5Xq6mMDAiD9SZY1HCw5TE5GJpqWNlxl3yAZDYOn84yj9ll83aiRtD37ID21x4E+R/7eR9HmTUS4XWe9JPSX76quxGq1MmbMKJwO1yAwhRDo9QZqamq5+eafMmvWzCFfJ4SgouIYkiQRfPLa3Gq1EhERSVNT0yCwdDodN954A+PHj6Ourg6j0TiojFBVouJGYLWG4mxoRBVupDPsT5+WvApCCqF1VxG1H62n/No7kdITQRVnP0ECEAJZCqW3tg6LTk9KRjq2nh5fFIkTRwkNRgMNjY3k5eVy880/HZSI6wffZrOhqipWaxghISdCgzJASEgI4eFhtLd39sUzOeFeCEFERAT33Xcvubm51NbWYjQaAtEfSZJwezykZ6QSFBREb3PTgPrnQsLjQZs7hroVKym7biFkRiHptKAq58CV+NRHbDrO0iNYvArxyUl0NPtyMBE+kIxGIw31DaSmpLDi/hVER0efUk01N7cQHx9NePgQYBoMBkJCQggLs9LQ0BDoA5zIcEhISOChhx5i5syZFBfvDeQPAXjcbqKiowkym3F2d58YxLme4+jTn0Rb0RXO8b3sHCI+fhKqimQx4Tl8DNXhJCTUisflDoxPURS+/XYfkydN4rFHHyElOTnwbChqaGggJCQEg8EweA/IRzKhoSFUV1cPMTYfoLGxI7jvvnsZP34cL7/8Cm1t7URFRdLldBIWGYleFXjb2pEw+0TyuxzzkXwACr9H8B04HfqMUOs+PE4HwcHByP0kT5ZlHnzwfhYsWIDFYjmR/D4ECSE4fryWkJCQQZwbANNsNhIUZKampnbI9Ln+OTiLFy9m9OjRvPrqq+zeXYTqVQgOsfjA7OxCkmKG5wf+UCQEaDSowobi9WI2mZBkX9Sqs7OTxx57NJByePJe+MnkdDqpq6vHYgkmKytrwLMAYlOnTiUoKNi3sdXePuSL+jeSkZHB3LlzOXy4DFmWMRiNaADV7kCyGM9dxL8nkiTJZ4sUFb1ejyzLKIqCyWQKgHImIAGOHauhsrKSoKAgxo8fP+BZAMyMjAyCg82BE7KnIz97GwwG3H1nwmWNxhdB9yqgOfsg7PdOfrGmL8uvT9IMBkNA958p1RDg+PFajh6twGQyDnCLoB+Yer2epKQkqqtrqKmpGVb/DAYDYWFWBALF60WVBJJeB54zB0d+cPIfcO0zOD6VrGK1WoeXr963Gisvr0CWJaZPnzHgLCj0A9NgMDBr1ixSU5PZtct3sP5MZDSaiE+IR6gCl9OJAmjMJkSv898QS4GEL6zmdruR+varoqOjzpiz6efKtrY2tm7dSmZmBvn5eQADcvUHJCHExcWRnp7OJ598FnCRhqQ+cQgym4mOigZJoqezE7dGRhsRjhDVIGvOr6RL53hIVJL9IXM0UjSyTofdbkfWaHA4HCQlJZ/yuHbgFX3jraysZPv2HcTHx5OUlDTgGfSB6WfznJwckpIScbncfP3116d+ed9va1gYcXGxuNxuOtvacQmBLtzqw3BgDOC707l6B8KXRCE8HjSxqehNZnpsNmSthra2dlJTU4aV6y6EYNu2L0hKSiQtLZX4+PgBWdbQT8wVRUGv15OfX0h2diZbtmylqan5tA2EhFhITEzA7nDQ2tqGzWbDFGrta/1cRv79kCRLqB096PLTUY0GOtvbMZhM9PbaiYkZAZw659T//4qKCr788kuio6OYOXPmkHUCYPr1xuzZMwkLC+Orr3YMK9M2MjKK0JAQqquqsdvtBI0Y4e/F2Yz3+yO/j9lSiik7E5tG4nj1MfQmI3l5OVitoaet7hfjHTt2cOjQYVJT0xg1ahTAIMM1SBFFRkYyZ85cEhMT+Pjjj0/pc/opPT0No8kIqkJDUxPauDg0UpIvHebfwQhJks8NQiU4KYEuh4Pqiko8Xi/Z2dnExsb2FTt1Z48fP867775HQUE+l146/9TRs/5/+A3R7NkzSUtL5b33PmTHjh2n7Wt6ejoWSwgx0dEcPHwEJdSCeWIhqt3Jvwea+AIkQGhqKp2dnZSVleH1eElOTh4QqDgVff755xw5UkZSUhKTJ08GhlYLA8D0s21iYiJTp05l/PgxrFr1L+rr60/5At9KYCyyVsO3+/aiCIH1gmkoNXXfLQx3vkgC4fGit+YjpyRxtKKSELMZvcEw5N6On/xjPXz4MKtW/Yvc3BwuvviiQNLvUL7poP/4uXPRokXExcWyZ08xa9as7ds9HcxpRqOR8ePHc7y+kYaKSuo6OwiZNB4h6kCn+583RJIGb1Mb1oVzEUYjX+38hsjoaMxmE3l5pz5I6z+yuHr1alpb28jJyWHu3LkAp/RLhzy6oqoqERERLF26lMLCAv75z5fYvXs3MJA7/Z8zMjIYPWYUbXWNfFtaSkhKMobESag2W2Az7DvTufiZQiAZdCgdBwmfN5MWm42D3+7F7nQwb948rNaw01bfvHkLb7zxFtnZWVxzzdXo9fpBB203LBgAAAg7SURBVGr705A99LPw3LlzGTkyj9BQC88//zxNTU2B6BGc4NTU1FQmTpyAQ1XYtX07tiATEddeiffoDl9Q93zQufiZsozaa8cQOYaw3Dx2l+zH3t5Br93B1KlT0Ot1g3cN+v4uLy/nueeeIyMjgwsumB648eZ0q6VTTrdf3H/2s5+RlpbK3r17eeWVVwYcnveTRqNh4sRJxCXEs23jJspra4m9cMb/vITrdHjLviLqlqXYgs188fnnSAYDU6ZMJjvbly3Sfyz+qFFnZyfPPvssLS0tpKensmTJEuDUh6n8dEow/eIeGxvLLT//OVlZWbz44su8//77Q5YfO3YMWdlZWK1WNm7ejCYthfCrb8N7vPH8GKKzFfN+CcJxF83lUGUl2zdvQ5Zl5s6dQ3h4+MnFA3ry9ddfZ/36z8jMzOT2228nLCzslEanP532qb/y5IkTueiieYwaNYrHH/9v1q1bN6hsWFgYV165CJfXy2cfrKG8qYmk669FaS8F/fCOJp+WzkbMhUAy6PGUlBJ7159Q4kawZs0aYuNjSUpOYvr06YOqSPg4b9Wqf/Hyy68yZswoFi26guzs7EHLxlPRsKd72bJlTJs2heTkJO655/ds3ry5X999PDBt2jTGTRhHZ3sHa9Z9hDE3m6ibfo1nbymSXv/dVkVnw5myjFAUZNFI0pLF7DlymM/XrKXL1su11y4lOjp6yGpr1qzhT396gNTUFC68cCZXXnmlr+m+XNIzNjucvvl1xd13383EiRPIyEjj/vsf4PPPNwUaE0IQGRnJkmuuwWgJZv3q9yguLyPtlmVIoh4hVDjFQYNh0XA5UwgkkxFX6VZS//Ya9vBQ3nz1VcyhoUydOmXA6TQ/E6iqyvvvf8Cjj65k5Mg8pk+fzq23/mzA2IdDwwKz/8HLX//610yaNAlrmJU777wrcNLVP3OzZ8/2nS3U6Xj2b09jC7OS8fy/cJVsQTKZvl+/UwgkoxHPgQrCF91CzKXzeW/dOkqL9xIcauGGG64P5A35jY3L5eKNN97gN7+5hxEjYpg580LuvPMXgWDw2aSiD/uSKP/LNRoNU6ZM4XhtLW63m7VrP8JoNJCVnY1Wo2HLli3s3l2EV1GoP1aDopG58Ec/wisF0/HBP9Gn5Pp2HL/jbuMgEgJJb0Dp6karMVD4j7+wu6aaFff8jozcHLQaLW63G71eT3x8PP4Lpl588UWef/6f5ORkc+GFM7jrrrvQaDTndNHeWd241R/Q6dOn09zcRE9PD3/723OEhliorKzi9tt/EdhbCQ0LY+2bq0gamcPUq67E1uqgZ+NqtMnZvqSu8wWoEEgGA6rDjqjayZj166kz6Fj+y18RNSImkE1XXPwtL7zwEpdccjF2u52HHnqYd955l5Ej85gzZzZ33HHHOXFkAJ+TT/UOh/o3tmrVKtau/Yhjx2rQ6XRERIQHUu38dw5Vl1fw8F8eZ2bOSEpXPEjbO89hHH+xb3vjXLI0/OQ/CmM24a2uQ+7oYPTna+mMjuR3y++htbWVYIslkJvv57gxY0ZTXl7B4cNHKCzMZ+Hll3PVokWDxna2dM73Z/ZvtKSkhKeeepqWlpbA//03wMh9yaq1x2p45C9PMDO/kIoXX6busd+iz56ObDT2JbuefTckrRahkXHv24Tlgh+Rv/IBmsxGfrd8OU2NTUREReLpd6jUl5ilp6urC51OR0ZGBnfccXvAgf+ud2h+55td/Yq8paWFN954g6++2oHdbkevNwROK/hzIWurqvjNffdyxZy5dHyxnfLbfo/bUYo+Z7rPOCmqL9NYnCJBy39ERadDeD14S6sRoprEB54icfFVlNTX8dhDD9PV1YU1LMy3cdYHpK8P4HI5CQ0NZfbsWVxzzTVYrdZh7ZcPh87LNbn9rxDfsWMHb7+9ito+A2U0GgPBAVmWOVD0LcvuuI1rlywhWoW6jz6m/r+fx9NZgixFIyenIJkMSFotkqwJ5CwJVUF4PKgtnShtB5CA6J//lqSlS1AT4/hkyxYeue+PJKQkYw4KwuPxoNFo+tw2cLtdGAwGMjMzWbLkx4wbN2ZQ378rfS8XODudDtav/4T16z+htbUVt9uNVqtFp9Oh0Wg4VllFeHQk/3HHHUwaM4YgWy/t3+6lo3gfjuIS3Hsq8HpLUTmR9qORQBczEeOkAkKnTyJ63DjUuFiOHK/ltddeY/uGTaTn5ZwYWN9JOa/Xi8FgID4+nksumc+8efMCu5H/lhc496f+HWxvb+err3awfv36wNcsKIqCxWLB6XBQWryPKXNnc/miy8nJziYu2ILW7UFxufol/PfBKYFGo0U2m2lTPBypqmLTho2sfuMtMrMysUaG4+27yszhcGAwGNBoNKSkpLBw4QImTJgQyMD4vi7A/97uae8vPg6Hg6KiIr788kuOlpfT1tqGqvpyfnq6ujhUXELO6HyyRxcSFRNDREQEYVYrZrMZbd/9bjZ7Lx0dnTQ1NnL0QCn7vt5NfHoy4REReBUlcIZSr9czYsQIUlJSmTdvDvn5+YGt3PMp0kPR93rpvd896q/cq6urqa+vp6ioiJ07d/WdbNDS02OjpamZ3s4unHY7Lrsd1eu7xUDWatHotBhMRozBQYRHR2EJCQkYNlmWMRqNzJ07h4wM3zcS9F9/C/HDfHnID/JFITBYtFRVxel00tnZSVFREZWVlQghcLu99PR00dXVHYid+sNfFksIFkswZrMJ/52aEyZMIC8vD71eP+Baxx8KwP70g4HppzMN0neSwU5vby8OhyNwva7BYMBsNmOxhAw44XAy+S9m+V/7FTb/r9D/BWSveFavwwpgAAAAAElFTkSuQmCC;" vertex="1" parent="1">
          <mxGeometry x="235" y="133.67" width="64.25" height="64.25" as="geometry" />
        </mxCell>
        <mxCell id="tkFViDJdxu8oeNSksexc-19" value="" style="shape=image;verticalLabelPosition=bottom;labelBackgroundColor=default;verticalAlign=top;aspect=fixed;imageAspect=0;image=data:image/png,iVBORw0KGgoAAAANSUhEUgAAAFUAAAAgCAYAAABjGjQoAAAABHNCSVQICAgIfAhkiAAAABl0RVh0U29mdHdhcmUAZ25vbWUtc2NyZWVuc2hvdO8Dvz4AAAAodEVYdENyZWF0aW9uIFRpbWUAbWFyLiAyOCBub3YuIDIwMjMgMTU6NTA6MzHIa+5DAAAGzklEQVRoge2Za1CU1xnHf+9eWJZlYVlYlqvKVUSC0TC5tVVBLtoQ7d2xtNFm0lumU9OZJDMdY221zXSaGU06SW3MTD+U1rYkYw2ijoHGNKURDRdt5Q7rBhaQBXx3WZZddtl9+wEVWNuAlq1js78ve973Oec5z/mf63tWMOxrlAixpMjudgD/j4REDQIhUYNASNQgEBI1CIREDQIhUYNASNQgEBI1CCgAEguyaCj2sfsVE8dd8zPE5GfQWC6w95c9HJ24GyGCTC5DJUi4pgM//uR8eUc+r638T2NDormujcfq3fjuqGaBtcW5HNMPklMlMrXIUgqAq50i50tTeCxdztutPmZDl7N+pRZZn4W6uyQoCKzdlMsfIi3kHbPhmWfzUXu6g8KzM0/K1CSqyhQcqezj9HUFXI6pOxT0zlEASA471X2p7F0VhbZVZPyGVaWlLE3gQp2dkf9RQDIB/LdxG2GzubBdT4dFTuOXBCxWF62ujy0WVBQzP17eaXVwoFTH+nCRGvfMW/UyHRsUE/y824uEgDHdyE+LDRTFK/BPuKi9YOGFcxOIkXH88XtGLv+2jQMDM4rI9EZqvqun7o0OXnZG8nRZEjuzIkgKkxixOqis7eOgyYuEkl07V7Oxw4w5fznfSpLjGp/k9Psf8VyTm/vKVnPsYRVK0jElDrP18ADN/ttpopx1D6ay/xEd+VoQRxz8/t1+DnZ7mF6UfRZZpJbvlCbzjUw1BmGazl4r+04N0zAZkO9GYqRb5ANZFOVp8pumB1dGoekXqXWAwhDPb7YbSbwywPYjHXz9PSeZ6zN5vUCFMGHn1EAYJdnq670ksCInhtwRkZoRgeKSNH4Q62T/79r51OEefjao4vvlRgpks2EUFSYR19TDQwdbeaLJT8nmVCp0EhfOtLLt3BT2f5pIf+12BYXk+9M4uimCzr/1svlINy90y9n1lQx2JwiLss/tnC1l6eyOGmdPZRtFlRZa4pL4VaEWVaD4NxLShJ1qs8DGVVq0AHINZZlyPmy3Y0VgzVoDeSNX2V13jUari4aLFp5p8PDQOj3ZePlLh5PU7GgyBEAIY3OumvZWG72SwHDPEM+cGKJmwI15dILj/3AwqlFimK2dye5B9jQ76XdM8feGUT7wK0nUBDbsNhFUfK5Ay7XGj/hhs4M2q5MTZ828ZAmnYm0kYQvZ5/lSsFwnw2qx8/7QFKZBkRff6uHZi1MErlZzts1patscKDJi+LQKlEnRbIqYoKbLix852QYlIxYnfTc9SPT0O3Ho1WTKYbDbxuXYaEr1AnK9jsfjJ6lud+PDx6VWkS6tjm9vSOEXn8+g+gtxJAfodeWqi5t7od/P1FLc8srDWRUrcbHfNbvBSV6a+j3EGsKJWcg+15fk4VTzONqHs2n4ZiYvFxsp0Xg4P+AJ2DwDzqlit0i9PIryFXLysqOJt9iodcx1HFBakvALIAjgt9k5PaymNDuMjJwYcoZEToqAoGLH9lxObtGTjofGDit7zoxhDpjGXp90i/ulQPg3g90vSSDMNP5j7fNsEuaWXh59tZsfXZrEo9expyKXs9t0xAf4mCeqNDlOtUmgMC+ebdlhNLfbuSoB+OgZ9WJI1pBy04FAWoqGaNGNyQdIHmo7XeTlxPPk6nBaWm1YJJDpdFRkTPN6VQ/P/9VKVbuDyy4I/y9n9qLwTdExJpCfop6dyoKSB1LCEEfdjC1kn9vLMjVfKkqiVOmk+sIgz1d1sv4tEfXqWD4zb5245YtqmnfbxlHkJPCk3snJLg8zA0qipWWU9oQEDhXFsCYunHX3pfDKIyoam8bo8M/kMXXZ6U02sNPg5O2OmbLSlJcxn5IH0iIwqhWkrTDwUpkeo0xBnHqRykqgjFASHyYgXzj3nHJu/tzkwFCwjANrNGTFRrBlw3KeWzbF0ZYJPAvZ5/mSSM4wsr/ESFGCitS4SLbmaoiyuzF551erCIzD3iPy3nQMW4ZtvDM++37aOsyuPwm8WJzK8UcV+CYmqa3vZe+Hs4dr36iNM2OJZDlEzlwvK02K7Duh4dCmTM5vlOjrF3n1pBn74ys48EQSlw9bF1TUZLZjXpfKuaeUlP96kEu3cQKwNJv5WlgKPynM4qxW4NrIOJVv9nJoUFqEfU6nS27eqO4n9bMJHH4qCbXXy5UBG8++OURLQDzCkv7xJ9fw46ezyK5vpaLFG5Q18l5gyS5UFHIZqXlGvhjh4FjXJ1dQWDJRlez46v00bo2kq36IE86l8XqvsmTTXxmuJI5phtyf5DE6wy0b1Z3idXsZWipn9zihS+ogEBI1CIREDQIhUYNASNQgEBI1CPwL8kzeIrbYJScAAAAASUVORK5CYII=;" vertex="1" parent="1">
          <mxGeometry x="241.75" y="197.92" width="50.68" height="19.08" as="geometry" />
        </mxCell>
      </root>
    </mxGraphModel>
  </diagram>
</mxfile>
